<svg width="161" height="293" viewBox="0 0 161 293" fill="none" xmlns="http://www.w3.org/2000/svg">
<g clip-path="url(#clip0_3_17)">
<path d="M54 -51V270H107V-51H54Z" stroke="#A2724E" stroke-width="3"/>
<path d="M13.0076 148.204C12.8511 145.44 15.1448 143.081 18.1308 142.937L140.319 137.007C143.305 136.862 145.853 138.986 146.009 141.751L147.992 176.795C148.148 179.56 145.855 181.918 142.869 182.063L20.6809 187.993C17.6949 188.137 15.1475 186.014 14.991 183.249L13.0076 148.204Z" fill="#5C2314"/>
<path d="M39.7527 198.872C39.858 196.113 42.1804 193.961 44.9398 194.066L117.887 196.85C120.646 196.956 122.798 199.278 122.692 202.037L121.434 235.013C121.329 237.773 119.006 239.924 116.247 239.819L43.2999 237.035C40.5405 236.93 38.3889 234.607 38.4942 231.848L39.7527 198.872Z" fill="#FF4513"/>
<path d="M63.6031 206.187L69.0871 206.396C69.2923 206.404 69.4667 206.485 69.6102 206.64C69.7537 206.795 69.8216 206.975 69.8137 207.181L69.1239 225.255C69.1161 225.461 69.0347 225.635 68.8798 225.778C68.7249 225.922 68.5448 225.99 68.3396 225.982L62.8556 225.773C62.6505 225.765 62.4761 225.683 62.3326 225.529C62.189 225.374 62.1212 225.194 62.129 224.988L62.3597 218.945L57.827 218.772L57.5963 224.815C57.5885 225.021 57.5071 225.195 57.3522 225.338C57.1973 225.482 57.0172 225.55 56.812 225.542L51.328 225.333C51.1228 225.325 50.9481 225.253 50.8039 225.117C50.6604 224.962 50.5929 224.772 50.6014 224.548L51.2912 206.474C51.2991 206.268 51.3804 206.094 51.5354 205.951C51.6903 205.807 51.8703 205.739 52.0755 205.747L57.5595 205.956C57.7647 205.964 57.9391 206.045 58.0826 206.2C58.2261 206.355 58.294 206.535 58.2861 206.741L58.0619 212.616L62.5946 212.789L62.8188 206.914C62.8267 206.708 62.908 206.534 63.063 206.39C63.2179 206.247 63.3979 206.179 63.6031 206.187ZM75.3979 208.43C77.1667 207.116 79.4594 206.512 82.276 206.619C85.0926 206.727 87.3229 207.512 88.967 208.976C90.6304 210.422 91.414 212.404 91.3179 214.922L91.1513 219.287C91.0538 221.843 90.1307 223.759 88.382 225.038C86.6527 226.298 84.3611 226.874 81.5072 226.765C78.6532 226.656 76.4028 225.907 74.7559 224.518C73.1284 223.111 72.3634 221.129 72.461 218.574L72.6275 214.209C72.7244 211.672 73.6478 209.746 75.3979 208.43ZM80.2258 220.691C80.5847 221.079 81.0812 221.284 81.7154 221.309C82.3496 221.333 82.8603 221.166 83.2476 220.807C83.6349 220.448 83.8432 219.886 83.8724 219.121L84.0518 214.421C84.0802 213.675 83.9151 213.108 83.5562 212.721C83.1981 212.315 82.702 212.1 82.0678 212.075C81.4336 212.051 80.9225 212.228 80.5344 212.605C80.1471 212.964 79.9393 213.517 79.9108 214.263L79.7314 218.963C79.7022 219.728 79.867 220.304 80.2258 220.691ZM94.4592 207.365L110.855 207.99C111.06 207.998 111.235 208.08 111.378 208.234C111.522 208.389 111.59 208.569 111.582 208.775L111.41 213.279C111.402 213.484 111.321 213.659 111.166 213.802C111.011 213.946 110.831 214.014 110.626 214.006L105.981 213.829L105.492 226.643C105.484 226.849 105.403 227.023 105.248 227.166C105.093 227.31 104.913 227.378 104.708 227.37L99.1118 227.156C98.9066 227.149 98.7322 227.067 98.5887 226.912C98.4452 226.757 98.3773 226.577 98.3852 226.372L98.8742 213.557L94.2296 213.38C94.0244 213.372 93.8501 213.291 93.7065 213.136C93.563 212.981 93.4952 212.801 93.503 212.596L93.6749 208.091C93.6827 207.886 93.7641 207.712 93.919 207.568C94.074 207.425 94.254 207.357 94.4592 207.365Z" fill="white"/>
<path d="M18.7972 252.656C18.749 249.895 20.9482 247.617 23.7092 247.569L136.692 245.597C139.453 245.549 141.73 247.748 141.778 250.509L142.389 285.504C142.438 288.265 140.238 290.542 137.477 290.59L24.4946 292.562C21.7336 292.61 19.4563 290.411 19.4081 287.65L18.7972 252.656Z" fill="#5C2314"/>
<path d="M30.7237 259.849L47.1292 259.562C47.3345 259.559 47.5131 259.63 47.6651 259.777C47.817 259.924 47.8947 260.1 47.8983 260.305L47.977 264.812C47.9806 265.017 47.909 265.196 47.7623 265.348C47.6156 265.5 47.4396 265.578 47.2343 265.581L42.587 265.662L42.8108 278.484C42.8144 278.69 42.7428 278.868 42.5961 279.02C42.4494 279.172 42.2734 279.25 42.0681 279.254L36.469 279.351C36.2637 279.355 36.0851 279.283 35.9331 279.137C35.7812 278.99 35.7035 278.814 35.6999 278.609L35.4761 265.787L30.8288 265.868C30.6235 265.871 30.4449 265.8 30.293 265.653C30.141 265.506 30.0633 265.33 30.0597 265.125L29.981 260.618C29.9774 260.412 30.049 260.234 30.1957 260.082C30.3424 259.93 30.5184 259.852 30.7237 259.849ZM52.5691 261.26C54.2621 259.848 56.5177 259.118 59.3359 259.069C62.1542 259.02 64.4247 259.68 66.1476 261.051C67.8887 262.402 68.7813 264.337 68.8253 266.857L68.9015 271.224C68.9462 273.781 68.131 275.746 66.4561 277.12C64.7994 278.474 62.5433 279.176 59.6878 279.226C56.8322 279.276 54.5437 278.653 52.8221 277.358C51.1189 276.043 50.245 274.107 50.2004 271.55L50.1241 267.183C50.0798 264.645 50.8948 262.67 52.5691 261.26ZM58.071 273.233C58.4507 273.6 58.9579 273.778 59.5925 273.767C60.2271 273.756 60.7277 273.56 61.0945 273.181C61.4613 272.801 61.638 272.228 61.6246 271.463L61.5425 266.76C61.5295 266.013 61.3331 265.457 60.9533 265.09C60.5731 264.704 60.0658 264.517 59.4312 264.528C58.7967 264.539 58.2962 264.744 57.9297 265.143C57.563 265.522 57.3861 266.086 57.3991 266.832L57.4812 271.535C57.4946 272.301 57.6912 272.867 58.071 273.233ZM77.8968 259.025L83.9718 258.919C84.6437 258.907 85.069 259.208 85.2478 259.821L91.8026 277.573C91.8222 277.629 91.8332 277.722 91.8355 277.853C91.8374 277.965 91.7742 278.087 91.6458 278.22C91.5358 278.334 91.3968 278.392 91.2288 278.395L86.0496 278.486C85.4897 278.496 85.1217 278.269 84.9456 277.805L84.2414 275.969L78.2223 276.074L77.5827 277.934C77.4229 278.403 77.063 278.643 76.5031 278.652L71.3239 278.743C71.1559 278.746 71.0056 278.692 70.873 278.583C70.7587 278.454 70.7006 278.334 70.6987 278.222C70.6964 278.091 70.7041 277.998 70.7218 277.941L76.6531 259.971C76.8103 259.352 77.2249 259.037 77.8968 259.025ZM79.5548 270.59L82.7184 270.535L81.0317 265.355L79.5548 270.59ZM93.3503 264.916C93.3171 263.013 94.0739 261.45 95.6208 260.228C97.1864 259.006 99.2477 258.372 101.805 258.328C104.38 258.283 106.491 258.871 108.136 260.094C109.801 261.315 110.645 262.607 110.668 263.97C110.671 264.138 110.609 264.288 110.48 264.421C110.37 264.535 110.241 264.594 110.091 264.596L104.492 264.694C104.063 264.701 103.668 264.55 103.308 264.238C102.948 263.927 102.469 263.777 101.872 263.787C100.976 263.803 100.533 264.072 100.542 264.595C100.547 264.875 100.765 265.104 101.198 265.283C101.649 265.462 102.473 265.616 103.67 265.744C106.457 266.05 108.447 266.669 109.64 267.6C110.85 268.513 111.473 269.93 111.506 271.853C111.539 273.756 110.689 275.33 108.956 276.574C107.241 277.799 104.975 278.436 102.156 278.485C99.3382 278.534 97.1164 277.994 95.4912 276.865C93.8659 275.736 93.0387 274.341 93.0097 272.679C93.0068 272.511 93.0603 272.371 93.1704 272.257C93.2987 272.124 93.4469 272.056 93.6149 272.053L98.9341 271.96C99.326 271.953 99.7585 272.132 100.232 272.497C100.723 272.862 101.389 273.037 102.229 273.023C103.629 272.998 104.324 272.725 104.315 272.202C104.309 271.866 104.053 271.619 103.546 271.459C103.039 271.282 102.084 271.112 100.681 270.949C95.8544 270.399 93.4109 268.388 93.3503 264.916ZM113.699 258.4L130.105 258.114C130.31 258.11 130.489 258.182 130.641 258.329C130.793 258.475 130.87 258.651 130.874 258.857L130.953 263.364C130.956 263.569 130.885 263.748 130.738 263.9C130.591 264.052 130.415 264.129 130.21 264.133L125.563 264.214L125.786 277.036C125.79 277.241 125.718 277.42 125.572 277.572C125.425 277.724 125.249 277.802 125.044 277.805L119.445 277.903C119.239 277.906 119.061 277.835 118.909 277.688C118.757 277.542 118.679 277.366 118.676 277.16L118.452 264.338L113.804 264.419C113.599 264.423 113.421 264.351 113.269 264.205C113.117 264.058 113.039 263.882 113.035 263.677L112.957 259.169C112.953 258.964 113.025 258.785 113.171 258.633C113.318 258.482 113.494 258.404 113.699 258.4Z" fill="white"/>
<path d="M34.539 174.772L34.1267 174.715L33.8503 174.729L33.404 174.779L33.043 174.692L32.6875 174.711L32.364 174.583L31.9808 174.577L31.5962 174.544L31.247 174.43L30.8888 174.396L30.4751 174.313L30.1778 174.183L29.7877 174.045L29.4898 173.902L29.0734 173.766L28.8232 173.528L28.4858 173.387L28.1684 173.127L27.8414 172.933L27.6003 172.615L27.3217 172.34L27.0979 172.101L26.7875 171.47L26.5097 170.706L26.437 170.327L26.6324 170.026L26.9207 169.734L27.6032 169.407L27.9407 169.297L28.2324 169.071L28.6377 168.996L28.9454 168.822L29.3508 168.748L29.6328 168.588L30.0049 168.383L30.7415 168.08L31.1219 168.034L31.5092 168.119L31.8155 168.42L32.2534 168.965L32.5679 169.173L32.87 169.394L33.5761 169.516L33.9641 169.614L34.3196 169.595L35.1476 169.525L35.5031 169.507L36.6222 169.197L36.8439 168.895L36.7788 168.159L36.5252 167.856L36.1857 167.675L35.8379 167.588L35.3979 167.506L34.987 167.474L34.5512 167.471L33.7647 167.327L33.457 167.251L33.033 167.221L32.7316 167.263L32.3428 167.151L31.9714 167.118L31.6091 167.005L31.1954 166.921L30.8233 166.875L30.4886 166.787L30.1657 166.672L29.7756 166.534L29.0606 166.241L28.4189 165.839L27.8785 165.353L27.5341 165.081L27.3865 164.785L27.1239 164.561L26.9168 164.136L26.7422 163.829L26.6209 163.531L26.4256 163.079L26.384 162.791L26.2295 162.364L26.1582 162.011L26.0986 160.879L26.1555 160.453L26.1617 160.07L26.2262 159.79L26.3779 159.412L26.387 159.081L26.581 158.754L26.6912 158.339L26.9517 158.022L27.2892 157.41L27.5532 157.159L27.8581 156.931L28.4263 156.439L28.7451 156.225L29.0396 156.051L29.3486 155.902L29.6986 155.778L30.0319 155.589L30.3804 155.439L30.7331 155.368L31.0699 155.244L31.5265 155.141L31.9055 155.068L32.2665 154.904L32.5971 154.913L32.9997 154.786L33.3697 154.793L34.4465 154.684L34.8574 154.715L35.2405 154.721L35.6646 154.752L35.991 154.682L36.431 154.764L36.7504 154.814L37.1599 154.818L37.5708 154.85L37.9228 155.016L38.2824 155.076L38.721 155.132L39.0183 155.262L39.3599 155.482L39.7209 155.568L40.0777 155.827L40.3611 155.944L40.7186 156.215L40.9307 156.482L41.1815 156.732L41.4448 156.969L41.6769 157.366L41.8764 157.646L42.3226 158.349L42.3954 158.728L42.202 159.068L41.9117 159.321L41.2049 159.688L40.909 159.836L40.5237 160.041L40.2791 160.16L39.88 160.352L39.5724 160.527L39.2224 160.651L38.6473 161.011L37.9066 161.235L37.6051 161.277L37.2296 161.165L36.9684 160.967L36.5651 160.328L36.2235 160.109L35.9096 159.914L35.5084 159.816L35.1488 159.756L34.7601 159.644L33.9307 159.688L33.6057 159.784L33.165 159.94L32.8449 160.128L32.5019 160.384L32.5372 161.055L32.8573 161.368L33.1552 161.511L33.5467 161.675L34.011 161.717L34.3297 161.753L34.8237 161.859L35.1792 161.84L35.9892 161.93L36.3724 161.936L36.7888 162.073L37.1346 162.12L37.4901 162.102L37.9023 162.159L38.2252 162.274L38.5849 162.335L38.9486 162.474L39.6859 162.686L40.0788 162.876L40.7703 163.223L41.0197 163.447L41.3066 163.63L41.9024 164.167L42.1311 164.498L42.3022 164.74L42.5704 165.069L42.6985 165.498L42.8988 165.791L43.0276 166.233L43.1371 166.557L43.1322 166.967L43.2292 167.305L43.3324 167.762L43.2901 168.464L43.2603 168.901L43.2762 169.204L43.1522 169.606L43.1473 170.016L42.9512 170.303L42.8362 170.626L42.6865 171.043L42.4883 171.291L42.2437 171.661L42.0337 171.936L41.8085 172.172L41.5736 172.475L41.2126 172.639L40.8959 172.893L40.67 173.116L40.3499 173.305L39.2668 173.797L38.9855 173.971L38.5829 174.097L38.2815 174.14L37.917 174.238L37.5684 174.388L37.1603 174.41L36.8243 174.546L36.387 174.517L36.0898 174.638L35.7197 174.631L34.539 174.772ZM54.7566 164.626L54.9313 164.181L55.0609 163.633L55.1974 163.217L55.2861 162.895L55.3242 162.616L55.4247 162.268L55.4587 161.909L55.5467 161.575L55.6528 161.081L55.7429 160.785L55.8295 160.424L55.9023 160.051L55.9639 159.718L56.0492 159.33L56.1337 158.93L56.1941 158.57L56.316 158.128L56.3507 157.783L56.4401 157.475L56.5212 157.008L56.5323 156.717L56.5884 156.279L56.6764 155.944L56.7492 155.571L56.9218 154.835L57.1138 154.469L57.3293 154.299L57.6335 154.059L57.9862 153.987L58.298 153.892L59.1378 153.795L59.4274 153.78L59.7843 153.787L60.1924 153.766L60.6019 153.771L60.8929 153.782L61.2983 153.708L61.6406 153.69L62.021 153.643L62.4319 153.674L63.0784 153.667L63.4934 153.777L63.6923 154.044L63.6327 154.417L63.5093 155.083L63.3589 155.487L63.2986 155.847L63.1573 156.171L63.1233 156.529L62.9473 156.948L62.8613 157.322L62.7719 157.63L62.6576 157.966L62.4233 158.784L62.3866 159.09L62.2466 159.44L62.1024 160.213L61.9729 160.511L61.9139 160.897L61.7213 161.25L61.7123 161.58L61.5771 162.023L61.4988 162.291L61.3872 162.68L61.2473 163.031L61.2161 163.442L61.0109 163.809L60.9486 164.129L60.8093 164.493L60.724 164.88L60.663 165.227L60.5605 165.536L60.4766 165.949L60.3352 166.274L60.3012 166.632L60.1266 167.077L60.013 167.426L59.9748 167.705L59.8376 168.108L59.7496 168.443L59.6013 168.886L59.5916 169.204L59.4246 169.543L59.3407 169.956L59.2492 170.225L59.1785 170.638L58.9886 171.044L58.9256 171.351L58.7891 171.768L58.6005 172.451L58.4315 172.75L58.06 172.968L56.9888 173.182L56.5938 173.203L55.4048 173.186L55.077 173.23L54.7243 173.301L54.3003 173.271L53.9725 173.315L53.5658 173.362L53.1972 173.382L52.3754 173.319L52.0303 173.285L51.6665 173.145L51.4413 172.88L51.1767 172.115L50.9737 171.769L50.8774 171.444L50.6855 171.058L50.6404 170.704L50.4901 170.356L50.3418 170.047L50.1243 169.675L49.9324 169.038L49.7543 168.665L49.3441 167.644L49.1211 166.916L48.916 166.531L48.8093 166.259L48.6035 165.861L48.4816 165.55L48.3312 165.202L48.2557 164.77L48.0971 164.514L47.9952 164.084L47.8712 163.734L47.6426 163.403L47.5989 163.075L47.3848 162.77L47.2871 162.418L47.1368 162.07L47.0356 161.653L46.8209 161.334L46.6677 160.933L46.5749 160.673L46.4204 160.246L46.3276 159.987L46.1377 159.64L46.0096 159.211L45.8322 158.851L45.7913 158.576L45.5474 158.206L45.4477 157.815L45.3237 157.465L45.1782 157.209L45.0223 156.755L44.8893 156.485L44.7659 156.148L44.4902 155.423L44.5498 155.05L44.6655 154.741L45.0695 154.64L45.8144 154.495L46.5544 154.509L46.8413 154.441L47.2799 154.497L47.5945 154.455L47.95 154.436L48.383 154.387L49.0836 154.403L49.7813 154.366L50.5754 154.403L50.951 154.516L51.217 154.805L51.3937 155.153L51.6805 155.837L51.781 156.241L51.9279 156.524L51.9992 156.877L52.1253 157.266L52.1967 157.619L52.2722 158.05L52.4586 158.331L52.48 158.739L52.6844 159.111L52.7828 159.476L52.8791 159.801L53.0468 160.227L53.1701 160.564L53.3945 161.318L53.461 161.579L53.5892 162.008L53.8151 162.537L53.9474 163.045L54.0693 163.355L54.2003 163.837L54.3998 164.368L54.546 164.637L54.7566 164.626ZM68.5549 172.495L68.1572 172.463L67.8648 172.175L67.7415 171.838L67.6999 171.048L67.7041 170.626L67.63 170.22L67.6626 169.836L67.6675 169.426L67.5718 169.114L67.5504 168.706L67.5553 168.297L67.565 167.979L67.4936 167.627L67.5221 167.163L67.5041 166.821L67.4285 166.389L67.439 166.085L67.4459 165.715L67.403 164.899L67.36 164.584L67.3635 164.148L67.3434 163.766L67.2977 163.399L67.2154 161.832L67.1676 161.426L67.1745 161.056L67.1822 160.699L67.1385 160.371L67.1517 159.618L67.0762 159.186L67.0582 158.844L67.0908 158.459L66.9903 158.055L67.05 157.683L66.9495 157.279L66.9849 156.947L66.9897 156.537L66.969 156.142L66.9212 155.735L66.8761 155.381L66.8581 155.039L66.8665 154.194L66.9012 153.849L67.2435 153.58L67.5234 153.38L68.3411 153.364L68.6848 153.372L69.1164 153.296L69.4456 153.279L69.8128 153.233L70.221 153.212L70.6332 153.27L70.9742 153.225L71.3809 153.177L71.7377 153.185L72.1563 153.11L72.5159 153.171L72.8949 153.098L73.3308 153.101L73.6453 153.058L74.0299 153.091L74.4339 152.99L74.7776 152.999L75.1843 152.951L75.5689 152.984L75.9126 152.992L76.7288 152.949L77.0683 152.878L77.5028 152.856L77.8347 152.891L78.2255 152.791L78.6378 152.849L78.9365 152.754L79.3314 152.733L80.1504 152.743L80.5232 152.802L80.7616 153.067L80.9168 153.508L80.9964 155.022L81.0691 155.401L81.1148 155.768L81.0822 156.153L81.13 156.559L81.0905 157.314L81.0025 157.649L80.7703 158.004L80.3781 158.077L79.5903 158.158L79.2986 158.134L78.9189 158.194L78.5634 158.212L78.1664 158.194L77.7582 158.215L77.4312 158.272L77.0605 158.252L76.6295 158.341L76.3232 158.291L75.9546 158.31L75.5485 158.371L75.1958 158.442L74.8507 158.408L74.4405 158.39L74.1149 158.473L73.4157 158.483L73.3561 158.856L73.3194 159.162L73.3679 159.581L73.4877 159.852L74.0815 159.848L74.5437 159.85L74.8964 159.778L75.2955 159.837L75.6247 159.819L75.9496 159.723L76.6737 159.685L77.1359 159.687L77.5073 159.72L77.8863 159.647L78.1891 159.632L78.9673 159.617L79.4101 159.752L79.6837 159.936L79.787 160.392L79.8541 161.168L79.8167 161.46L79.8908 161.866L79.861 162.303L79.9303 162.616L79.9781 163.023L79.9968 163.378L80.0141 164.209L79.8484 164.574L79.6253 164.85L79.2497 164.989L78.5284 165.079L78.1175 165.048L77.7343 165.042L76.9576 165.083L76.6063 165.18L76.2861 165.118L75.9085 165.217L75.5766 165.182L75.1802 165.176L74.8248 165.195L74.4444 165.241L73.8256 165.274L73.6593 165.626L73.7084 166.059L73.7798 166.412L73.856 166.856L74.4983 166.77L74.9342 166.773L75.6846 166.734L76.0415 166.741L76.4191 166.642L77.5513 166.583L78.0149 166.611L78.3586 166.62L78.7376 166.547L79.0944 166.555L79.9239 166.511L80.3029 166.438L81.0589 166.504L81.4455 166.576L81.6686 166.802L81.8716 167.148L81.9402 167.949L81.9817 168.739L81.9207 169.086L82.0239 169.543L82.0177 169.926L82.0093 170.269L82.0772 171.058L81.9663 171.46L81.7148 171.697L81.3122 171.824L80.5632 171.89L80.1578 171.964L79.8245 171.902L79.4046 171.951L78.6937 171.988L78.2751 172.063L77.9682 172L77.5642 172.101L77.2455 172.064L76.8387 172.112L76.4833 172.131L76.0897 172.178L75.6774 172.121L75.2734 172.221L74.2424 172.196L73.8765 172.268L73.4143 172.266L72.6902 172.304L72.3375 172.375L71.9294 172.397L71.5594 172.39L71.2289 172.381L70.8748 172.426L70.5034 172.393L70.1493 172.438L69.7703 172.51L69.3199 172.481L68.5549 172.495ZM86.6712 171.595L86.2707 171.511L86.006 171.247L85.8771 170.805L85.7857 170.071L85.7913 169.674L85.7435 169.268L85.7788 168.936L85.7317 168.542L85.7657 168.184L85.6916 167.779L85.6438 167.372L85.6535 167.055L85.6334 166.673L85.6355 166.211L85.5649 165.871L85.6238 165.485L85.5788 165.131L85.5857 164.761L85.4825 164.304L85.4915 163.974L85.4458 163.607L85.4742 163.143L85.4292 162.789L85.4389 162.472L85.3912 162.065L85.3711 161.683L85.3794 161.339L85.3288 160.88L85.2908 160.156L85.2984 159.799L85.2479 159.34L85.2014 158.959L85.2375 158.64L85.1883 158.207L85.1946 157.824L85.1752 157.456L85.1025 157.077L85.1648 156.756L85.0644 156.352L85.1233 155.967L85.0755 155.56L85.0298 155.193L85.0638 154.834L85.0423 154.426L84.9952 154.033L85.0049 153.214L85.0424 152.921L85.2766 152.605L85.6411 152.507L86.4255 152.36L86.8772 152.415L87.2563 152.343L87.6893 152.293L88.033 152.302L88.4148 152.282L88.7717 152.289L89.2311 152.239L89.5761 152.273L90.4187 152.229L90.7638 152.264L91.0562 152.552L91.2072 152.914L91.1975 153.733L91.2169 154.101L91.2647 154.508L91.3083 154.836L91.3263 155.178L91.3256 155.667L91.3179 156.024L91.3907 156.403L91.4115 156.798L91.4052 157.181L91.4218 157.497L91.4696 157.904L91.4647 158.313L91.5375 158.692L91.5215 159.393L91.5194 159.855L91.5887 160.168L91.6351 160.548L91.6288 160.932L91.5969 161.329L91.6974 161.733L91.7175 162.115L91.7091 162.459L91.7569 162.865L91.777 163.247L91.7174 163.62L91.8074 164.328L91.7769 164.752L91.8233 165.133L91.867 165.46L91.9875 165.745L92.2695 165.835L92.5883 165.871L93.02 165.796L93.4017 165.776L93.7468 165.81L94.1272 165.764L94.5326 165.69L94.8499 165.7L95.283 165.65L95.6676 165.683L95.9572 165.668L96.4194 165.67L96.8012 165.65L97.1684 165.604L97.4685 165.536L98.3007 165.545L98.6915 165.696L99.0053 165.89L99.0781 166.269L99.173 167.07L99.218 167.424L99.2097 167.768L99.2561 168.148L99.1985 168.56L99.22 168.968L99.292 169.334L99.2837 170.18L99.1964 170.527L98.9358 170.845L98.5332 170.972L97.7578 171.039L97.0074 171.078L96.6755 171.043L96.2397 171.039L95.9237 171.056L95.4671 171.159L95.1601 171.096L94.7693 171.196L94.3071 171.194L93.953 171.239L93.1763 171.28L92.7931 171.273L92.385 171.295L92.0967 171.336L91.7149 171.356L91.2514 171.328L90.9091 171.346L90.5827 171.416L90.1863 171.41L89.7533 171.46L89.341 171.402L88.962 171.475L88.5919 171.468L88.2656 171.538L87.8034 171.536L86.6712 171.595ZM104.969 170.633L104.579 170.495L104.354 170.23L104.162 169.844L104.149 169.105L104.011 167.977L104.041 167.54L104 166.763L104.011 166.472L103.934 166.014L103.967 165.63L103.897 165.303L103.93 164.932L103.906 164.471L103.808 164.12L103.789 163.751L103.824 163.419L103.827 162.983L103.757 162.644L103.787 162.207L103.69 161.882L103.694 161.459L103.648 161.078L103.681 160.694L103.607 160.302L103.644 159.996L103.595 159.563L103.575 159.194L103.583 158.838L103.562 158.429L103.57 158.086L103.494 157.654L103.462 157.035L103.089 156.976L102.734 156.994L102.298 156.991L101.98 156.981L101.599 157.001L101.192 157.049L100.796 157.043L100.468 157.087L100.035 157.136L99.3092 157.148L98.9212 157.05L98.615 156.749L98.5187 156.424L98.3829 155.599L98.3393 155.272L98.3705 154.861L98.2998 154.521L98.3719 154.135L98.3504 153.726L98.2389 153.363L98.2237 152.571L98.4018 152.192L98.5729 151.932L98.9714 151.727L99.7232 151.714L100.158 151.691L100.563 151.617L100.936 151.676L101.262 151.606L101.647 151.639L101.985 151.542L102.368 151.548L103.118 151.509L103.502 151.515L103.907 151.441L104.223 151.424L104.662 151.48L105.013 151.383L105.412 151.441L106.081 151.353L106.517 151.356L106.843 151.286L107.305 151.288L107.65 151.323L108.003 151.252L108.357 151.207L108.726 151.187L109.161 151.191L109.518 151.198L109.833 151.156L110.242 151.16L110.595 151.089L111.019 151.12L111.348 151.102L111.692 151.111L112.099 151.063L112.451 150.991L112.82 150.972L113.694 151.032L114.026 151.067L114.332 151.355L114.403 151.694L114.469 152.456L114.519 152.903L114.538 153.258L114.533 153.668L114.578 154.035L114.616 154.746L114.682 155.495L114.548 155.964L114.35 156.212L113.892 156.289L113.197 156.391L112.737 156.416L112.379 156.395L112.037 156.413L111.66 156.525L111.275 156.492L110.842 156.542L110.144 156.578L109.739 156.652L109.774 157.324L109.771 157.76L109.809 158.484L109.804 158.893L109.875 159.233L109.871 159.669L109.864 160.026L109.909 160.393L109.904 160.802L109.949 161.156L109.969 161.525L110.018 161.958L110.038 162.34L110.003 162.685L110.022 163.04L110.137 163.47L110.06 163.765L110.111 164.224L110.194 164.55L110.152 165.014L110.236 165.353L110.165 165.766L110.185 166.147L110.258 166.513L110.314 166.84L110.244 167.253L110.291 167.647L110.284 168.03L110.306 168.438L110.417 168.802L110.339 169.572L110.304 169.917L110.031 170.235L109.681 170.359L108.878 170.401L108.471 170.449L108.139 170.414L107.722 170.515L107.285 170.485L106.931 170.53L106.151 170.518L105.719 170.594L104.969 170.633ZM119.709 169.805L119.312 169.773L119.019 169.485L118.896 169.148L118.854 168.358L118.859 167.936L118.784 167.53L118.817 167.146L118.822 166.736L118.726 166.424L118.705 166.016L118.71 165.607L118.719 165.289L118.648 164.937L118.677 164.473L118.659 164.131L118.583 163.699L118.593 163.395L118.6 163.025L118.557 162.209L118.514 161.894L118.518 161.458L118.498 161.077L118.452 160.709L118.37 159.143L118.322 158.736L118.329 158.366L118.337 158.009L118.293 157.681L118.306 156.928L118.231 156.496L118.213 156.154L118.245 155.77L118.145 155.366L118.204 154.993L118.104 154.589L118.139 154.257L118.144 153.847L118.123 153.452L118.076 153.046L118.031 152.692L118.013 152.349L118.021 151.504L118.056 151.159L118.398 150.89L118.678 150.69L119.496 150.674L119.839 150.682L120.271 150.607L120.6 150.589L120.967 150.544L121.375 150.522L121.788 150.58L122.129 150.535L122.535 150.488L122.892 150.495L123.311 150.42L123.67 150.481L124.049 150.408L124.485 150.412L124.8 150.369L125.184 150.401L125.588 150.301L125.932 150.309L126.339 150.261L126.723 150.294L127.067 150.302L127.883 150.259L128.223 150.189L128.657 150.166L128.989 150.201L129.38 150.101L129.792 150.159L130.091 150.064L130.486 150.043L131.305 150.053L131.678 150.113L131.916 150.377L132.071 150.818L132.151 152.332L132.224 152.711L132.269 153.078L132.237 153.463L132.284 153.87L132.245 154.624L132.157 154.959L131.925 155.314L131.533 155.388L130.745 155.469L130.453 155.444L130.073 155.504L129.718 155.523L129.321 155.504L128.913 155.525L128.586 155.582L128.215 155.562L127.784 155.651L127.478 155.601L127.109 155.62L126.703 155.681L126.35 155.753L126.005 155.718L125.595 155.7L125.269 155.783L124.57 155.793L124.511 156.166L124.474 156.472L124.522 156.892L124.642 157.163L125.236 157.158L125.698 157.16L126.051 157.089L126.45 157.147L126.779 157.129L127.104 157.033L127.828 156.995L128.29 156.997L128.662 157.03L129.041 156.958L129.344 156.942L130.122 156.927L130.565 157.062L130.838 157.246L130.941 157.703L131.009 158.478L130.971 158.77L131.045 159.176L131.015 159.613L131.085 159.926L131.133 160.333L131.151 160.688L131.169 161.519L131.003 161.884L130.78 162.16L130.404 162.299L129.683 162.389L129.272 162.358L128.889 162.352L128.112 162.393L127.761 162.491L127.441 162.428L127.063 162.527L126.731 162.492L126.335 162.486L125.979 162.505L125.599 162.551L124.98 162.584L124.814 162.936L124.863 163.369L124.934 163.722L125.01 164.167L125.653 164.08L126.089 164.083L126.839 164.044L127.196 164.052L127.574 163.953L128.706 163.893L129.169 163.921L129.513 163.93L129.892 163.857L130.249 163.865L131.078 163.821L131.457 163.748L132.213 163.814L132.6 163.886L132.823 164.112L133.026 164.458L133.095 165.26L133.136 166.05L133.075 166.396L133.178 166.853L133.172 167.236L133.164 167.58L133.232 168.368L133.121 168.77L132.869 169.008L132.467 169.134L131.718 169.2L131.312 169.274L130.979 169.213L130.559 169.261L129.848 169.299L129.43 169.373L129.123 169.31L128.719 169.411L128.4 169.375L127.993 169.422L127.638 169.441L127.244 169.488L126.832 169.431L126.428 169.531L125.397 169.506L125.031 169.578L124.569 169.576L123.845 169.614L123.492 169.686L123.084 169.707L122.714 169.7L122.383 169.691L122.029 169.736L121.658 169.703L121.304 169.748L120.925 169.821L120.474 169.791L119.709 169.805Z" fill="white"/>
</g>
<defs>
<clipPath id="clip0_3_17">
<rect width="161" height="293" fill="white"/>
</clipPath>
</defs>
</svg>
